<svg width="909.698" height="80.007" viewBox="0 0 909.698 80.007" xmlns="http://www.w3.org/2000/svg"><g id="svgGroup" stroke-linecap="round" fill-rule="evenodd" font-size="9pt" stroke="#000000" stroke-width="0.25mm" fill="#000000" style="stroke:#000000;stroke-width:0.25mm;fill:#000000"><path d="M 331.898 60.703 L 347.098 60.703 L 347.098 0.903 C 347.098 0.503 346.698 0.003 345.998 0.003 L 332.798 0.003 C 332.398 0.003 331.898 0.303 331.698 0.603 L 304.398 59.203 L 275.698 0.603 C 275.598 0.303 274.998 0.003 274.698 0.003 L 261.298 0.003 C 260.598 0.003 260.298 0.503 260.298 0.903 L 260.298 79.103 C 260.298 79.503 260.598 80.003 261.298 80.003 L 274.498 80.003 C 275.098 80.003 275.598 79.503 275.598 79.103 L 275.598 34.203 L 297.298 76.203 C 297.398 76.503 297.998 76.803 298.298 76.803 L 310.598 76.803 C 310.898 76.803 311.398 76.503 311.498 76.203 L 331.898 35.303 L 331.898 60.703 Z M 478.498 14.703 L 478.498 0.903 C 478.498 0.503 478.098 0.003 477.398 0.003 L 464.398 0.003 C 444.498 0.003 417.498 5.803 417.498 40.003 C 417.498 75.503 444.798 80.003 464.398 80.003 L 477.398 80.003 C 478.098 80.003 478.498 79.503 478.498 79.103 L 478.498 47.703 L 478.498 45.403 L 478.498 30.103 L 463.198 30.103 L 447.798 30.103 L 447.798 45.403 L 463.198 45.403 L 463.198 47.703 L 463.198 65.403 C 445.798 66.303 432.898 59.003 432.898 40.003 C 432.898 15.303 453.498 14.303 463.198 14.703 L 478.498 14.703 Z M 858.798 14.703 L 858.798 0.903 C 858.798 0.503 858.398 0.003 857.698 0.003 L 844.698 0.003 C 824.798 0.003 797.798 5.803 797.798 40.003 C 797.798 75.503 825.098 80.003 844.698 80.003 L 857.698 80.003 C 858.398 80.003 858.798 79.503 858.798 79.103 L 858.798 47.703 L 858.798 45.403 L 858.798 30.103 L 843.498 30.103 L 828.098 30.103 L 828.098 45.403 L 843.498 45.403 L 843.498 47.703 L 843.498 65.403 C 826.098 66.303 813.198 59.003 813.198 40.003 C 813.198 15.303 833.798 14.303 843.498 14.703 L 858.798 14.703 Z M 767.198 0.003 L 741.298 0.003 C 740.798 0.003 740.298 0.503 740.298 0.903 L 740.298 14.503 L 755.498 14.503 L 767.198 14.503 C 769.598 14.503 778.998 15.003 778.998 23.803 C 778.998 32.603 770.498 33.003 767.198 33.003 L 755.498 33.003 L 740.298 33.003 L 740.298 79.103 C 740.298 79.503 740.798 80.003 741.298 80.003 L 754.398 80.003 C 754.998 80.003 755.498 79.503 755.498 79.103 L 755.498 47.703 L 764.098 47.703 L 778.698 79.403 C 778.798 79.703 779.398 80.003 779.698 80.003 L 793.998 80.003 C 794.798 80.003 795.198 79.403 794.898 78.703 C 789.898 67.603 784.498 56.603 779.498 45.303 C 787.498 42.403 794.198 36.003 794.198 23.803 C 794.198 0.203 771.698 0.003 767.198 0.003 Z M 580.798 78.503 L 548.698 40.703 L 580.498 1.503 C 581.198 0.803 580.698 0.003 579.598 0.003 L 563.298 0.003 C 563.098 0.003 562.498 0.203 562.398 0.303 L 532.298 37.303 L 532.298 0.903 C 532.298 0.503 531.898 0.003 531.298 0.003 L 518.098 0.003 C 517.498 0.003 516.998 0.503 516.998 0.903 L 516.998 75.103 C 516.998 75.103 536.498 53.003 538.498 50.903 L 561.798 79.703 C 561.898 79.803 562.498 80.003 562.698 80.003 L 579.898 80.003 C 580.898 80.003 581.398 79.303 580.798 78.503 Z M 124.998 0.003 L 111.998 0.003 C 111.298 0.003 110.898 0.503 110.898 0.903 L 110.898 53.303 C 110.898 61.403 103.498 65.303 95.998 65.303 C 88.598 65.303 81.998 61.103 81.098 53.203 L 81.098 14.503 L 65.998 14.503 L 65.998 53.303 C 65.998 69.803 79.498 80.003 95.998 80.003 C 112.998 80.003 125.998 70.203 125.998 53.303 L 125.998 0.903 C 125.998 0.503 125.498 0.003 124.998 0.003 Z M 899.898 65.103 L 877.198 65.103 L 877.198 47.103 L 908.598 47.103 C 909.198 47.103 909.698 46.603 909.698 46.203 L 909.698 33.503 C 909.698 33.003 909.198 32.603 908.598 32.603 L 877.198 32.603 L 877.198 14.503 L 899.898 14.503 L 899.898 0.003 L 862.998 0.003 C 862.398 0.003 861.898 0.503 861.898 0.903 L 861.898 79.103 C 861.898 79.503 862.398 80.003 862.998 80.003 L 899.898 80.003 L 899.898 65.103 Z M 655.998 32.603 L 624.598 32.603 L 624.598 14.503 L 647.298 14.503 L 647.298 0.003 L 610.398 0.003 C 609.798 0.003 609.298 0.503 609.298 0.903 L 609.298 79.103 C 609.298 79.503 609.798 80.003 610.398 80.003 L 614.598 80.003 L 624.498 80.003 L 624.598 80.003 L 624.598 47.103 L 655.998 47.103 C 656.598 47.103 657.098 46.603 657.098 46.203 L 657.098 33.503 C 657.098 33.003 656.598 32.603 655.998 32.603 Z M 62.798 78.803 L 32.398 0.603 C 32.098 -0.197 30.698 -0.197 30.398 0.603 L 0.098 78.803 C -0.202 79.403 0.198 80.003 1.098 80.003 L 14.798 80.003 C 15.198 80.003 15.698 79.803 15.798 79.403 L 31.398 34.803 L 47.198 79.403 C 47.298 79.803 47.798 80.003 48.098 80.003 L 61.898 80.003 C 62.598 80.003 63.098 79.403 62.798 78.803 Z M 414.298 78.803 L 383.898 0.603 C 383.598 -0.197 382.198 -0.197 381.898 0.603 L 351.598 78.803 C 351.298 79.403 351.698 80.003 352.598 80.003 L 366.298 80.003 C 366.698 80.003 367.198 79.803 367.298 79.403 L 382.898 34.803 L 398.698 79.403 C 398.798 79.803 399.298 80.003 399.598 80.003 L 413.398 80.003 C 414.098 80.003 414.598 79.403 414.298 78.803 Z M 256.498 39.903 C 256.498 20.003 243.598 0.003 218.098 0.003 C 192.198 0.003 179.498 20.003 179.498 39.903 C 179.498 59.903 192.198 80.003 218.098 80.003 C 243.598 80.003 256.498 59.903 256.498 39.903 Z M 736.498 39.903 C 736.498 20.003 723.598 0.003 698.098 0.003 C 672.198 0.003 659.498 20.003 659.498 39.903 C 659.498 59.903 672.198 80.003 698.098 80.003 C 723.598 80.003 736.498 59.903 736.498 39.903 Z M 514.198 66.303 L 506.198 66.303 L 506.198 38.003 L 506.198 13.703 L 506.198 0.003 L 490.898 0.003 L 490.898 13.703 L 490.898 38.003 L 490.898 66.303 L 482.698 66.303 C 482.098 66.303 481.598 66.703 481.598 67.203 L 481.598 79.103 C 481.598 79.503 482.098 80.003 482.698 80.003 L 514.198 80.003 C 514.898 80.003 515.298 79.503 515.298 79.103 L 515.298 67.203 C 515.298 66.703 514.898 66.303 514.198 66.303 Z M 241.498 40.203 C 241.498 53.103 233.598 66.003 218.098 66.003 C 202.398 66.003 194.598 53.103 194.598 40.203 C 194.598 27.103 202.398 14.103 218.098 14.103 C 233.598 14.103 241.498 27.103 241.498 40.203 Z M 721.498 40.203 C 721.498 53.103 713.598 66.003 698.098 66.003 C 682.398 66.003 674.598 53.103 674.598 40.203 C 674.598 27.103 682.398 14.103 698.098 14.103 C 713.598 14.103 721.498 27.103 721.498 40.203 Z M 145.498 29.003 L 145.498 79.103 C 145.498 79.503 145.898 80.003 146.598 80.003 L 159.498 80.003 C 160.198 80.003 160.698 79.503 160.698 79.103 L 160.698 29.003 L 145.498 29.003 Z M 130.098 13.703 L 175.998 13.703 C 176.698 13.703 177.098 13.303 177.098 12.803 L 177.098 0.903 C 177.098 0.503 176.698 0.003 175.998 0.003 L 130.098 0.003 C 129.498 0.003 128.998 0.503 128.998 0.903 L 128.998 12.803 C 128.998 13.303 129.498 13.703 130.098 13.703 Z M 225.498 40.203 C 225.498 36.003 222.198 32.603 217.998 32.603 C 213.798 32.603 210.498 36.003 210.498 40.203 C 210.498 44.303 213.798 47.703 217.998 47.703 C 222.198 47.703 225.498 44.303 225.498 40.203 Z M 705.498 40.203 C 705.498 36.003 702.198 32.603 697.998 32.603 C 693.798 32.603 690.498 36.003 690.498 40.203 C 690.498 44.303 693.798 47.703 697.998 47.703 C 702.198 47.703 705.498 44.303 705.498 40.203 Z" vector-effect="non-scaling-stroke"/></g></svg>